<mxfile host="app.diagrams.net" agent="Mozilla/5.0 (Windows NT 10.0; Win64; x64) AppleWebKit/537.36 (KHTML, like Gecko) Chrome/127.0.0.0 Safari/537.36" version="24.7.6">
  <diagram name="Page-1" id="Jr2dkvtrpphaPTHCgXJN">
    <mxGraphModel dx="951" dy="627" grid="1" gridSize="10" guides="1" tooltips="1" connect="1" arrows="1" fold="1" page="1" pageScale="1" pageWidth="850" pageHeight="1100" math="0" shadow="0">
      <root>
        <mxCell id="0" />
        <mxCell id="1" parent="0" />
        <mxCell id="MrjNsAOnT55Fm3cDPTby-16" value="Mahasiswa" style="whiteSpace=wrap;html=1;align=center;" vertex="1" parent="1">
          <mxGeometry x="160" y="160" width="140" height="70" as="geometry" />
        </mxCell>
        <mxCell id="MrjNsAOnT55Fm3cDPTby-17" value="Nama" style="ellipse;whiteSpace=wrap;html=1;align=center;" vertex="1" parent="1">
          <mxGeometry x="190" y="100" width="80" height="40" as="geometry" />
        </mxCell>
        <mxCell id="MrjNsAOnT55Fm3cDPTby-18" value="Nama_belakang" style="ellipse;whiteSpace=wrap;html=1;align=center;" vertex="1" parent="1">
          <mxGeometry x="280" y="60" width="100" height="40" as="geometry" />
        </mxCell>
        <mxCell id="MrjNsAOnT55Fm3cDPTby-19" value="Nama_tengah" style="ellipse;whiteSpace=wrap;html=1;align=center;" vertex="1" parent="1">
          <mxGeometry x="180" y="20" width="100" height="40" as="geometry" />
        </mxCell>
        <mxCell id="MrjNsAOnT55Fm3cDPTby-20" value="Nama_depan" style="ellipse;whiteSpace=wrap;html=1;align=center;" vertex="1" parent="1">
          <mxGeometry x="70" y="60" width="100" height="40" as="geometry" />
        </mxCell>
        <mxCell id="MrjNsAOnT55Fm3cDPTby-21" value="" style="endArrow=none;html=1;rounded=0;" edge="1" parent="1" target="MrjNsAOnT55Fm3cDPTby-17">
          <mxGeometry relative="1" as="geometry">
            <mxPoint x="230" y="160" as="sourcePoint" />
            <mxPoint x="410" y="130" as="targetPoint" />
          </mxGeometry>
        </mxCell>
        <mxCell id="MrjNsAOnT55Fm3cDPTby-22" value="" style="endArrow=none;html=1;rounded=0;exitX=0.5;exitY=0;exitDx=0;exitDy=0;entryX=0.5;entryY=1;entryDx=0;entryDy=0;" edge="1" parent="1" source="MrjNsAOnT55Fm3cDPTby-17" target="MrjNsAOnT55Fm3cDPTby-19">
          <mxGeometry relative="1" as="geometry">
            <mxPoint x="220" y="90" as="sourcePoint" />
            <mxPoint x="270" y="90" as="targetPoint" />
          </mxGeometry>
        </mxCell>
        <mxCell id="MrjNsAOnT55Fm3cDPTby-23" value="" style="endArrow=none;html=1;rounded=0;exitX=0.5;exitY=0;exitDx=0;exitDy=0;entryX=0;entryY=0.5;entryDx=0;entryDy=0;" edge="1" parent="1" source="MrjNsAOnT55Fm3cDPTby-17" target="MrjNsAOnT55Fm3cDPTby-18">
          <mxGeometry relative="1" as="geometry">
            <mxPoint x="240" y="110" as="sourcePoint" />
            <mxPoint x="240" y="70" as="targetPoint" />
          </mxGeometry>
        </mxCell>
        <mxCell id="MrjNsAOnT55Fm3cDPTby-24" value="" style="endArrow=none;html=1;rounded=0;" edge="1" parent="1">
          <mxGeometry relative="1" as="geometry">
            <mxPoint x="230" y="100" as="sourcePoint" />
            <mxPoint x="170" y="80" as="targetPoint" />
            <Array as="points">
              <mxPoint x="170" y="80" />
            </Array>
          </mxGeometry>
        </mxCell>
        <mxCell id="MrjNsAOnT55Fm3cDPTby-26" value="Jurusan" style="ellipse;whiteSpace=wrap;html=1;align=center;" vertex="1" parent="1">
          <mxGeometry x="20" y="180" width="80" height="40" as="geometry" />
        </mxCell>
        <mxCell id="MrjNsAOnT55Fm3cDPTby-27" value="Alamat" style="ellipse;whiteSpace=wrap;html=1;align=center;" vertex="1" parent="1">
          <mxGeometry x="60" y="240" width="80" height="40" as="geometry" />
        </mxCell>
        <mxCell id="MrjNsAOnT55Fm3cDPTby-29" value="" style="endArrow=none;html=1;rounded=0;exitX=1;exitY=0.5;exitDx=0;exitDy=0;entryX=0.003;entryY=0.571;entryDx=0;entryDy=0;entryPerimeter=0;" edge="1" parent="1" source="MrjNsAOnT55Fm3cDPTby-26" target="MrjNsAOnT55Fm3cDPTby-16">
          <mxGeometry relative="1" as="geometry">
            <mxPoint x="160" y="260" as="sourcePoint" />
            <mxPoint x="320" y="260" as="targetPoint" />
          </mxGeometry>
        </mxCell>
        <mxCell id="MrjNsAOnT55Fm3cDPTby-30" value="" style="endArrow=none;html=1;rounded=0;entryX=0.5;entryY=1;entryDx=0;entryDy=0;" edge="1" parent="1">
          <mxGeometry relative="1" as="geometry">
            <mxPoint x="160" y="200" as="sourcePoint" />
            <mxPoint x="100" y="150" as="targetPoint" />
          </mxGeometry>
        </mxCell>
        <mxCell id="MrjNsAOnT55Fm3cDPTby-32" value="" style="endArrow=none;html=1;rounded=0;exitX=0.643;exitY=-0.027;exitDx=0;exitDy=0;entryX=-0.01;entryY=0.614;entryDx=0;entryDy=0;entryPerimeter=0;exitPerimeter=0;" edge="1" parent="1" source="MrjNsAOnT55Fm3cDPTby-27" target="MrjNsAOnT55Fm3cDPTby-16">
          <mxGeometry relative="1" as="geometry">
            <mxPoint x="110" y="210" as="sourcePoint" />
            <mxPoint x="170" y="210" as="targetPoint" />
          </mxGeometry>
        </mxCell>
        <mxCell id="MrjNsAOnT55Fm3cDPTby-33" value="" style="endArrow=none;html=1;rounded=0;entryX=0;entryY=0.5;entryDx=0;entryDy=0;" edge="1" parent="1" target="MrjNsAOnT55Fm3cDPTby-34">
          <mxGeometry relative="1" as="geometry">
            <mxPoint x="300" y="199.32999999999998" as="sourcePoint" />
            <mxPoint x="400" y="199" as="targetPoint" />
          </mxGeometry>
        </mxCell>
        <mxCell id="MrjNsAOnT55Fm3cDPTby-34" value="Mendaftar" style="shape=rhombus;perimeter=rhombusPerimeter;whiteSpace=wrap;html=1;align=center;" vertex="1" parent="1">
          <mxGeometry x="440" y="170" width="90" height="60" as="geometry" />
        </mxCell>
        <mxCell id="MrjNsAOnT55Fm3cDPTby-35" value="Nama" style="ellipse;whiteSpace=wrap;html=1;align=center;" vertex="1" parent="1">
          <mxGeometry x="500" y="100" width="70" height="40" as="geometry" />
        </mxCell>
        <mxCell id="MrjNsAOnT55Fm3cDPTby-36" value="Alamat" style="ellipse;whiteSpace=wrap;html=1;align=center;" vertex="1" parent="1">
          <mxGeometry x="360" y="100" width="70" height="40" as="geometry" />
        </mxCell>
        <mxCell id="MrjNsAOnT55Fm3cDPTby-37" value="Jurusan" style="ellipse;whiteSpace=wrap;html=1;align=center;" vertex="1" parent="1">
          <mxGeometry x="390" y="50" width="70" height="40" as="geometry" />
        </mxCell>
        <mxCell id="MrjNsAOnT55Fm3cDPTby-39" value="" style="endArrow=none;html=1;rounded=0;exitX=0.5;exitY=0;exitDx=0;exitDy=0;entryX=0.265;entryY=0.924;entryDx=0;entryDy=0;entryPerimeter=0;" edge="1" parent="1" source="MrjNsAOnT55Fm3cDPTby-34" target="MrjNsAOnT55Fm3cDPTby-35">
          <mxGeometry relative="1" as="geometry">
            <mxPoint x="470" y="150" as="sourcePoint" />
            <mxPoint x="490" y="150" as="targetPoint" />
          </mxGeometry>
        </mxCell>
        <mxCell id="MrjNsAOnT55Fm3cDPTby-40" value="" style="endArrow=none;html=1;rounded=0;entryX=0.444;entryY=0;entryDx=0;entryDy=0;entryPerimeter=0;exitX=0.602;exitY=1.029;exitDx=0;exitDy=0;exitPerimeter=0;" edge="1" parent="1" source="MrjNsAOnT55Fm3cDPTby-36" target="MrjNsAOnT55Fm3cDPTby-34">
          <mxGeometry relative="1" as="geometry">
            <mxPoint x="470" y="150" as="sourcePoint" />
            <mxPoint x="630" y="150" as="targetPoint" />
          </mxGeometry>
        </mxCell>
        <mxCell id="MrjNsAOnT55Fm3cDPTby-42" value="" style="endArrow=none;html=1;rounded=0;exitX=0.5;exitY=0;exitDx=0;exitDy=0;entryX=0.228;entryY=0.891;entryDx=0;entryDy=0;entryPerimeter=0;" edge="1" parent="1" source="MrjNsAOnT55Fm3cDPTby-34" target="MrjNsAOnT55Fm3cDPTby-103">
          <mxGeometry relative="1" as="geometry">
            <mxPoint x="470" y="150" as="sourcePoint" />
            <mxPoint x="487.8499999999999" y="90.03999999999996" as="targetPoint" />
          </mxGeometry>
        </mxCell>
        <mxCell id="MrjNsAOnT55Fm3cDPTby-43" value="" style="endArrow=none;html=1;rounded=0;entryX=0.5;entryY=1;entryDx=0;entryDy=0;exitX=0.5;exitY=0;exitDx=0;exitDy=0;" edge="1" parent="1" source="MrjNsAOnT55Fm3cDPTby-34" target="MrjNsAOnT55Fm3cDPTby-37">
          <mxGeometry relative="1" as="geometry">
            <mxPoint x="470" y="150" as="sourcePoint" />
            <mxPoint x="630" y="150" as="targetPoint" />
          </mxGeometry>
        </mxCell>
        <mxCell id="MrjNsAOnT55Fm3cDPTby-44" value="Anggota&lt;div&gt;perpustakaan&lt;/div&gt;" style="whiteSpace=wrap;html=1;align=center;" vertex="1" parent="1">
          <mxGeometry x="630" y="160" width="140" height="70" as="geometry" />
        </mxCell>
        <mxCell id="MrjNsAOnT55Fm3cDPTby-46" value="" style="endArrow=none;html=1;rounded=0;" edge="1" parent="1">
          <mxGeometry relative="1" as="geometry">
            <mxPoint x="530" y="199.62" as="sourcePoint" />
            <mxPoint x="630" y="200" as="targetPoint" />
          </mxGeometry>
        </mxCell>
        <mxCell id="MrjNsAOnT55Fm3cDPTby-48" value="Nama" style="ellipse;whiteSpace=wrap;html=1;align=center;" vertex="1" parent="1">
          <mxGeometry x="620" y="40" width="70" height="40" as="geometry" />
        </mxCell>
        <mxCell id="MrjNsAOnT55Fm3cDPTby-49" value="Jurusan" style="ellipse;whiteSpace=wrap;html=1;align=center;" vertex="1" parent="1">
          <mxGeometry x="710" y="40" width="70" height="40" as="geometry" />
        </mxCell>
        <mxCell id="MrjNsAOnT55Fm3cDPTby-50" value="Masa_berlaku" style="ellipse;whiteSpace=wrap;html=1;align=center;" vertex="1" parent="1">
          <mxGeometry x="730" y="90" width="80" height="40" as="geometry" />
        </mxCell>
        <mxCell id="MrjNsAOnT55Fm3cDPTby-51" value="" style="endArrow=none;html=1;rounded=0;entryX=0.247;entryY=0.982;entryDx=0;entryDy=0;entryPerimeter=0;exitX=0.5;exitY=0;exitDx=0;exitDy=0;" edge="1" parent="1" source="MrjNsAOnT55Fm3cDPTby-44" target="MrjNsAOnT55Fm3cDPTby-50">
          <mxGeometry relative="1" as="geometry">
            <mxPoint x="630" y="150" as="sourcePoint" />
            <mxPoint x="790" y="150" as="targetPoint" />
          </mxGeometry>
        </mxCell>
        <mxCell id="MrjNsAOnT55Fm3cDPTby-53" value="" style="endArrow=none;html=1;rounded=0;exitX=0.5;exitY=0;exitDx=0;exitDy=0;entryX=0.755;entryY=0.912;entryDx=0;entryDy=0;entryPerimeter=0;" edge="1" parent="1" source="MrjNsAOnT55Fm3cDPTby-44">
          <mxGeometry relative="1" as="geometry">
            <mxPoint x="710" y="170" as="sourcePoint" />
            <mxPoint x="652.8499999999999" y="126.48000000000002" as="targetPoint" />
          </mxGeometry>
        </mxCell>
        <mxCell id="MrjNsAOnT55Fm3cDPTby-54" value="" style="endArrow=none;html=1;rounded=0;entryX=0.253;entryY=0.955;entryDx=0;entryDy=0;entryPerimeter=0;" edge="1" parent="1" target="MrjNsAOnT55Fm3cDPTby-49">
          <mxGeometry relative="1" as="geometry">
            <mxPoint x="700" y="160" as="sourcePoint" />
            <mxPoint x="730" y="250" as="targetPoint" />
          </mxGeometry>
        </mxCell>
        <mxCell id="MrjNsAOnT55Fm3cDPTby-55" value="" style="endArrow=none;html=1;rounded=0;exitX=0.714;exitY=1;exitDx=0;exitDy=0;exitPerimeter=0;" edge="1" parent="1" source="MrjNsAOnT55Fm3cDPTby-48">
          <mxGeometry relative="1" as="geometry">
            <mxPoint x="510" y="160" as="sourcePoint" />
            <mxPoint x="700" y="160" as="targetPoint" />
          </mxGeometry>
        </mxCell>
        <mxCell id="MrjNsAOnT55Fm3cDPTby-57" value="Meminjam" style="shape=rhombus;perimeter=rhombusPerimeter;whiteSpace=wrap;html=1;align=center;" vertex="1" parent="1">
          <mxGeometry x="665" y="320" width="75" height="80" as="geometry" />
        </mxCell>
        <mxCell id="MrjNsAOnT55Fm3cDPTby-58" value="" style="endArrow=none;html=1;rounded=0;entryX=0.495;entryY=0.028;entryDx=0;entryDy=0;entryPerimeter=0;exitX=0.5;exitY=1;exitDx=0;exitDy=0;" edge="1" parent="1" source="MrjNsAOnT55Fm3cDPTby-44" target="MrjNsAOnT55Fm3cDPTby-57">
          <mxGeometry relative="1" as="geometry">
            <mxPoint x="540" y="310" as="sourcePoint" />
            <mxPoint x="700" y="310" as="targetPoint" />
          </mxGeometry>
        </mxCell>
        <mxCell id="MrjNsAOnT55Fm3cDPTby-113" value="1" style="edgeLabel;html=1;align=center;verticalAlign=middle;resizable=0;points=[];" vertex="1" connectable="0" parent="MrjNsAOnT55Fm3cDPTby-58">
          <mxGeometry x="-0.7274" y="1" relative="1" as="geometry">
            <mxPoint as="offset" />
          </mxGeometry>
        </mxCell>
        <mxCell id="MrjNsAOnT55Fm3cDPTby-73" value="" style="endArrow=none;html=1;rounded=0;entryX=0.5;entryY=1;entryDx=0;entryDy=0;exitX=1;exitY=0;exitDx=0;exitDy=0;" edge="1" parent="1" source="MrjNsAOnT55Fm3cDPTby-74" target="MrjNsAOnT55Fm3cDPTby-57">
          <mxGeometry relative="1" as="geometry">
            <mxPoint x="700" y="470" as="sourcePoint" />
            <mxPoint x="450" y="410" as="targetPoint" />
          </mxGeometry>
        </mxCell>
        <mxCell id="MrjNsAOnT55Fm3cDPTby-109" value="Many" style="edgeLabel;html=1;align=center;verticalAlign=middle;resizable=0;points=[];" vertex="1" connectable="0" parent="MrjNsAOnT55Fm3cDPTby-73">
          <mxGeometry x="-0.0131" relative="1" as="geometry">
            <mxPoint as="offset" />
          </mxGeometry>
        </mxCell>
        <mxCell id="MrjNsAOnT55Fm3cDPTby-74" value="Entity" style="whiteSpace=wrap;html=1;align=center;" vertex="1" parent="1">
          <mxGeometry x="380" y="420" width="100" height="40" as="geometry" />
        </mxCell>
        <mxCell id="MrjNsAOnT55Fm3cDPTby-75" value="Penerbit" style="ellipse;whiteSpace=wrap;html=1;align=center;" vertex="1" parent="1">
          <mxGeometry x="470" y="570" width="100" height="40" as="geometry" />
        </mxCell>
        <mxCell id="MrjNsAOnT55Fm3cDPTby-76" value="Jeni.Buku" style="ellipse;whiteSpace=wrap;html=1;align=center;" vertex="1" parent="1">
          <mxGeometry x="585" y="520" width="100" height="40" as="geometry" />
        </mxCell>
        <mxCell id="MrjNsAOnT55Fm3cDPTby-78" value="Tahun_Penerbit" style="ellipse;whiteSpace=wrap;html=1;align=center;" vertex="1" parent="1">
          <mxGeometry x="320" y="550" width="100" height="40" as="geometry" />
        </mxCell>
        <mxCell id="MrjNsAOnT55Fm3cDPTby-79" value="Pengarang" style="ellipse;whiteSpace=wrap;html=1;align=center;" vertex="1" parent="1">
          <mxGeometry x="600" y="460" width="100" height="40" as="geometry" />
        </mxCell>
        <mxCell id="MrjNsAOnT55Fm3cDPTby-80" value="" style="endArrow=none;html=1;rounded=0;entryX=0.5;entryY=1;entryDx=0;entryDy=0;exitX=0.5;exitY=0;exitDx=0;exitDy=0;" edge="1" parent="1" source="MrjNsAOnT55Fm3cDPTby-78" target="MrjNsAOnT55Fm3cDPTby-74">
          <mxGeometry relative="1" as="geometry">
            <mxPoint x="350" y="500" as="sourcePoint" />
            <mxPoint x="510" y="500" as="targetPoint" />
          </mxGeometry>
        </mxCell>
        <mxCell id="MrjNsAOnT55Fm3cDPTby-81" value="" style="endArrow=none;html=1;rounded=0;entryX=0.5;entryY=1;entryDx=0;entryDy=0;exitX=1;exitY=0.5;exitDx=0;exitDy=0;" edge="1" parent="1" source="MrjNsAOnT55Fm3cDPTby-110" target="MrjNsAOnT55Fm3cDPTby-74">
          <mxGeometry relative="1" as="geometry">
            <mxPoint x="335.4000000000001" y="502.2800000000002" as="sourcePoint" />
            <mxPoint x="500" y="510" as="targetPoint" />
          </mxGeometry>
        </mxCell>
        <mxCell id="MrjNsAOnT55Fm3cDPTby-82" value="" style="endArrow=none;html=1;rounded=0;entryX=0.5;entryY=1;entryDx=0;entryDy=0;exitX=0.5;exitY=0;exitDx=0;exitDy=0;" edge="1" parent="1" source="MrjNsAOnT55Fm3cDPTby-75" target="MrjNsAOnT55Fm3cDPTby-74">
          <mxGeometry relative="1" as="geometry">
            <mxPoint x="310" y="600" as="sourcePoint" />
            <mxPoint x="470" y="600" as="targetPoint" />
          </mxGeometry>
        </mxCell>
        <mxCell id="MrjNsAOnT55Fm3cDPTby-83" value="" style="endArrow=none;html=1;rounded=0;entryX=0;entryY=0.5;entryDx=0;entryDy=0;exitX=0.5;exitY=1;exitDx=0;exitDy=0;" edge="1" parent="1" source="MrjNsAOnT55Fm3cDPTby-74" target="MrjNsAOnT55Fm3cDPTby-76">
          <mxGeometry relative="1" as="geometry">
            <mxPoint x="760" y="510" as="sourcePoint" />
            <mxPoint x="920" y="510" as="targetPoint" />
          </mxGeometry>
        </mxCell>
        <mxCell id="MrjNsAOnT55Fm3cDPTby-85" value="" style="endArrow=none;html=1;rounded=0;entryX=0;entryY=0.5;entryDx=0;entryDy=0;exitX=0.532;exitY=0.986;exitDx=0;exitDy=0;exitPerimeter=0;" edge="1" parent="1" source="MrjNsAOnT55Fm3cDPTby-74" target="MrjNsAOnT55Fm3cDPTby-79">
          <mxGeometry relative="1" as="geometry">
            <mxPoint x="435" y="480" as="sourcePoint" />
            <mxPoint x="540" y="410" as="targetPoint" />
          </mxGeometry>
        </mxCell>
        <mxCell id="MrjNsAOnT55Fm3cDPTby-86" value="Kode_Pelajaran" style="ellipse;whiteSpace=wrap;html=1;align=center;" vertex="1" parent="1">
          <mxGeometry x="540" y="260" width="100" height="40" as="geometry" />
        </mxCell>
        <mxCell id="MrjNsAOnT55Fm3cDPTby-87" value="Tanggal_Kembali" style="ellipse;whiteSpace=wrap;html=1;align=center;" vertex="1" parent="1">
          <mxGeometry x="490" y="310" width="100" height="40" as="geometry" />
        </mxCell>
        <mxCell id="MrjNsAOnT55Fm3cDPTby-88" value="Tanggal_pinjam" style="ellipse;whiteSpace=wrap;html=1;align=center;" vertex="1" parent="1">
          <mxGeometry x="560" y="360" width="100" height="40" as="geometry" />
        </mxCell>
        <mxCell id="MrjNsAOnT55Fm3cDPTby-91" value="Judul_Buku" style="ellipse;whiteSpace=wrap;html=1;align=center;" vertex="1" parent="1">
          <mxGeometry x="760" y="370" width="100" height="40" as="geometry" />
        </mxCell>
        <mxCell id="MrjNsAOnT55Fm3cDPTby-92" value="Denda" style="ellipse;whiteSpace=wrap;html=1;align=center;" vertex="1" parent="1">
          <mxGeometry x="730" y="420" width="100" height="40" as="geometry" />
        </mxCell>
        <mxCell id="MrjNsAOnT55Fm3cDPTby-93" value="" style="endArrow=none;html=1;rounded=0;entryX=0.303;entryY=0.045;entryDx=0;entryDy=0;entryPerimeter=0;exitX=1;exitY=0.5;exitDx=0;exitDy=0;" edge="1" parent="1" source="MrjNsAOnT55Fm3cDPTby-57" target="MrjNsAOnT55Fm3cDPTby-92">
          <mxGeometry relative="1" as="geometry">
            <mxPoint x="680" y="410" as="sourcePoint" />
            <mxPoint x="840" y="410" as="targetPoint" />
          </mxGeometry>
        </mxCell>
        <mxCell id="MrjNsAOnT55Fm3cDPTby-94" value="" style="endArrow=none;html=1;rounded=0;entryX=0;entryY=0.5;entryDx=0;entryDy=0;exitX=1;exitY=0.5;exitDx=0;exitDy=0;" edge="1" parent="1" source="MrjNsAOnT55Fm3cDPTby-57" target="MrjNsAOnT55Fm3cDPTby-91">
          <mxGeometry relative="1" as="geometry">
            <mxPoint x="750" y="350" as="sourcePoint" />
            <mxPoint x="780" y="416" as="targetPoint" />
          </mxGeometry>
        </mxCell>
        <mxCell id="MrjNsAOnT55Fm3cDPTby-95" value="" style="endArrow=none;html=1;rounded=0;entryX=0.056;entryY=0.75;entryDx=0;entryDy=0;exitX=1;exitY=0.5;exitDx=0;exitDy=0;entryPerimeter=0;" edge="1" parent="1" source="MrjNsAOnT55Fm3cDPTby-57" target="MrjNsAOnT55Fm3cDPTby-106">
          <mxGeometry relative="1" as="geometry">
            <mxPoint x="750" y="370" as="sourcePoint" />
            <mxPoint x="759.7" y="342.8800000000001" as="targetPoint" />
          </mxGeometry>
        </mxCell>
        <mxCell id="MrjNsAOnT55Fm3cDPTby-96" value="" style="endArrow=none;html=1;rounded=0;entryX=0.029;entryY=0.66;entryDx=0;entryDy=0;exitX=1;exitY=0.5;exitDx=0;exitDy=0;entryPerimeter=0;" edge="1" parent="1" source="MrjNsAOnT55Fm3cDPTby-57">
          <mxGeometry relative="1" as="geometry">
            <mxPoint x="750" y="370" as="sourcePoint" />
            <mxPoint x="742.8999999999999" y="276.4" as="targetPoint" />
          </mxGeometry>
        </mxCell>
        <mxCell id="MrjNsAOnT55Fm3cDPTby-97" value="" style="endArrow=none;html=1;rounded=0;entryX=1;entryY=0.5;entryDx=0;entryDy=0;exitX=0;exitY=0.5;exitDx=0;exitDy=0;" edge="1" parent="1" source="MrjNsAOnT55Fm3cDPTby-57" target="MrjNsAOnT55Fm3cDPTby-86">
          <mxGeometry relative="1" as="geometry">
            <mxPoint x="750" y="370" as="sourcePoint" />
            <mxPoint x="753" y="286" as="targetPoint" />
          </mxGeometry>
        </mxCell>
        <mxCell id="MrjNsAOnT55Fm3cDPTby-98" value="" style="endArrow=none;html=1;rounded=0;entryX=1;entryY=0.5;entryDx=0;entryDy=0;exitX=0;exitY=0.5;exitDx=0;exitDy=0;" edge="1" parent="1" source="MrjNsAOnT55Fm3cDPTby-57" target="MrjNsAOnT55Fm3cDPTby-87">
          <mxGeometry relative="1" as="geometry">
            <mxPoint x="675" y="370" as="sourcePoint" />
            <mxPoint x="650" y="290" as="targetPoint" />
          </mxGeometry>
        </mxCell>
        <mxCell id="MrjNsAOnT55Fm3cDPTby-100" value="" style="endArrow=none;html=1;rounded=0;entryX=0.975;entryY=0.378;entryDx=0;entryDy=0;exitX=0;exitY=0.5;exitDx=0;exitDy=0;entryPerimeter=0;" edge="1" parent="1" source="MrjNsAOnT55Fm3cDPTby-57" target="MrjNsAOnT55Fm3cDPTby-88">
          <mxGeometry relative="1" as="geometry">
            <mxPoint x="675" y="370" as="sourcePoint" />
            <mxPoint x="600" y="340" as="targetPoint" />
          </mxGeometry>
        </mxCell>
        <mxCell id="MrjNsAOnT55Fm3cDPTby-101" value="Nim" style="ellipse;whiteSpace=wrap;html=1;align=center;fontStyle=4;" vertex="1" parent="1">
          <mxGeometry x="15" y="120" width="90" height="40" as="geometry" />
        </mxCell>
        <mxCell id="MrjNsAOnT55Fm3cDPTby-103" value="Nim" style="ellipse;whiteSpace=wrap;html=1;align=center;fontStyle=4;" vertex="1" parent="1">
          <mxGeometry x="470" y="40" width="90" height="40" as="geometry" />
        </mxCell>
        <mxCell id="MrjNsAOnT55Fm3cDPTby-104" value="Nomor.Anggota" style="ellipse;whiteSpace=wrap;html=1;align=center;fontStyle=4;" vertex="1" parent="1">
          <mxGeometry x="585" y="90" width="90" height="40" as="geometry" />
        </mxCell>
        <mxCell id="MrjNsAOnT55Fm3cDPTby-105" value="Nomor.Anggota" style="ellipse;whiteSpace=wrap;html=1;align=center;fontStyle=4;" vertex="1" parent="1">
          <mxGeometry x="725" y="240" width="90" height="40" as="geometry" />
        </mxCell>
        <mxCell id="MrjNsAOnT55Fm3cDPTby-106" value="Nomor.&lt;b&gt;&amp;nbsp;&lt;/b&gt;Buku&amp;nbsp;" style="ellipse;whiteSpace=wrap;html=1;align=center;fontStyle=4;" vertex="1" parent="1">
          <mxGeometry x="765" y="300" width="90" height="40" as="geometry" />
        </mxCell>
        <mxCell id="MrjNsAOnT55Fm3cDPTby-110" value="Nomor_buku" style="ellipse;whiteSpace=wrap;html=1;align=center;fontStyle=4;" vertex="1" parent="1">
          <mxGeometry x="240" y="500" width="90" height="40" as="geometry" />
        </mxCell>
        <mxCell id="MrjNsAOnT55Fm3cDPTby-111" value="Judul_buku" style="ellipse;whiteSpace=wrap;html=1;align=center;" vertex="1" parent="1">
          <mxGeometry x="220" y="450" width="100" height="40" as="geometry" />
        </mxCell>
        <mxCell id="MrjNsAOnT55Fm3cDPTby-112" value="" style="endArrow=none;html=1;rounded=0;exitX=1;exitY=0.5;exitDx=0;exitDy=0;entryX=0.5;entryY=1;entryDx=0;entryDy=0;" edge="1" parent="1" source="MrjNsAOnT55Fm3cDPTby-111" target="MrjNsAOnT55Fm3cDPTby-74">
          <mxGeometry relative="1" as="geometry">
            <mxPoint x="345.4000000000001" y="512.2800000000002" as="sourcePoint" />
            <mxPoint x="430" y="490" as="targetPoint" />
          </mxGeometry>
        </mxCell>
        <mxCell id="MrjNsAOnT55Fm3cDPTby-115" value="Many" style="text;html=1;align=center;verticalAlign=middle;resizable=0;points=[];autosize=1;strokeColor=none;fillColor=none;" vertex="1" parent="1">
          <mxGeometry x="545" y="198" width="50" height="30" as="geometry" />
        </mxCell>
        <mxCell id="MrjNsAOnT55Fm3cDPTby-116" value="Many" style="text;html=1;align=center;verticalAlign=middle;resizable=0;points=[];autosize=1;strokeColor=none;fillColor=none;" vertex="1" parent="1">
          <mxGeometry x="360" y="198" width="50" height="30" as="geometry" />
        </mxCell>
      </root>
    </mxGraphModel>
  </diagram>
</mxfile>
